<?xml version="1.0" ?><!DOCTYPE svg  PUBLIC '-//W3C//DTD SVG 1.1//EN'  'http://www.w3.org/Graphics/SVG/1.1/DTD/svg11.dtd'><svg enable-background="new 0 0 512 512" height="512px" id="Innovative_x5F_mind" version="1.1" viewBox="0 0 512 512" width="512px" xml:space="preserve" xmlns="http://www.w3.org/2000/svg" xmlns:xlink="http://www.w3.org/1999/xlink"><g><circle cx="251.125" cy="49.283" r="10.205"/><path d="M464.539,156.577c-17.438,0-31.883,14.087-34.199,29.087h-21.779c-3.398,0-6.661,4.127-6.661,7.547v33.453h-42.731   c-9.396-27-28.936-50.196-54.174-63.712c-2.715-1.48-6.22-2.848-9.077-4.086c-12.154-5.283-24.018-8.52-40.018-9.264V93.664h8.569   c3.42,0,4.431-1.367,4.431-4.789V77.02c0-0.338,1.104-0.699,1.508-0.99c9.135-6.459,15.043-16.988,15.043-28.17   c0-9.811-3.988-19.193-11.279-25.74c-7.313-6.549-17.034-9.652-26.846-8.572c-15.973,1.754-29.009,14.646-30.673,30.643   c-1.283,12.465,4.021,24.684,14.237,31.883c0.357,0.248,0.01,0.609,0.01,0.947v11.855c0,3.422,3.915,4.789,7.335,4.789h6.665   v55.943c-48,2.531-87.085,34.057-101.831,77.057h-33.169v-33.453c0-3.42-2.931-7.547-6.351-7.547H81.859   c-2.316-15-16.764-29.087-34.201-29.087c-19.035,0-34.274,15.82-34.274,34.876c0,11.588,3.516,22.57,15.516,28.962v12.396   c0,3.418,2.245,4.852,5.665,4.852h26.213c3.42,0,6.122-1.434,6.122-4.852v-12.396c7-4.951,12.53-13.752,14.442-20.752h14.558   v33.148c0,3.418,4.229,4.852,7.649,4.852h36.045c-1.27,7-2.192,12.366-2.552,18.429l-0.143,0.663v0.201c0,2.209,0,12.92,0,12.92   l-20.268,55.913c-2.004,5.557,2.21,10.874,8.12,10.874h12.289l-0.09,64.488c0,12.537,10.162,23.512,22.697,23.512h42.631h32.299   c3.418,0,6.188,2.082,6.188,5.5c0,3.416-2.77,5.5-6.188,5.5h-32.679v46.695c0,9.301,7.687,16.305,16.985,16.305h104.434   c9.299,0,15.581-7.004,15.581-16.305V363.602c0-16.357,4.986-32.328,12.629-46.793c7.984-15.111,12.996-32.229,13.432-50.406   c0.02-0.912,0.195-1.844,0.195-2.775c0-1.785,0.079-4.237-0.001-5.999c-0.305-6.594-1.133-12.964-2.51-19.964h45.916   c3.42,0,4.339-1.434,4.339-4.852v-33.148h17.958c1.912,7,8.042,15.801,14.042,20.752v12.396c0,3.418,3.103,4.852,6.522,4.852   h26.213c3.42,0,5.265-1.434,5.265-4.852v-12.396c9-6.393,15.717-17.374,15.717-28.962   C498.616,172.397,483.574,156.577,464.539,156.577z M238.833,65.947c-6.66-4.678-10.364-12.352-9.509-20.475   c1.059-10.236,9.248-18.494,19.463-19.641c6.434-0.699,12.576,1.26,17.348,5.51c4.68,4.209,7.379,10.215,7.379,16.518   c0,7.154-3.7,13.926-9.573,18.066c-3.668,2.609-6.041,6.75-6.041,11.094v5.645h-13V77.02   C244.899,72.676,242.476,68.535,238.833,65.947z M68.471,199.398c-1.844,5.086-6.401,9.406-11.397,12.018   c-2.047,1.078-4.174,3.193-4.174,5.488v9.76h-13v-9.76c0-2.295-0.857-4.41-2.904-5.488c-7.357-3.852-11.711-11.365-11.711-19.623   c0-12.217,10.051-22.162,22.268-22.162c10.576,0,19.516,7.447,21.699,17.393c0.336,1.531,0.544,3.129,0.544,4.77   C69.795,194.449,69.35,197.014,68.471,199.398z M327.627,238.575c-1.98,18.835-17.91,33.089-37.238,33.089h-82.574   c-19.35,0-35.258-14.239-37.238-33.073c-0.154-1.289-0.221-2.381-0.223-3.713c0.002-2.871,0.336-6.214,0.943-8.214h-0.006   c0.002,0,0.004-0.042,0.006-0.052c3.826-16.652,18.697-29.043,36.518-29.043c3.51,0,6.909,0.52,10.149,1.443   c4.455-11.676,12.936-20.565,26.936-23.243v0.004c2-0.584,5.262-1.13,8.006-1.13c1.486,0,2.991,0.021,4.431,0.021h-0.01   c13.59,2,24.945,10.669,30.098,22.821c0.99-0.092,1.979-0.034,2.969-0.034c17.797,0,32.689,12.461,36.492,29.111   c0.629,2.693,0.965,5.53,0.967,8.399C327.85,236.296,327.781,237.284,327.627,238.575z M475.003,211.416   c-2.047,1.078-3.104,3.193-3.104,5.488v9.76h-16v-9.76c0-2.295-0.428-4.41-2.477-5.488c-0.516-0.271-0.605-0.563-1.102-0.902   c-0.293-0.158-0.35-0.338-0.619-0.563c-1.146-0.764-2.097-1.643-3.042-2.633c-0.27-0.248-0.465-0.518-0.713-0.787   c-0.111-0.113-0.197-0.246-0.287-0.383c-0.359-0.404-0.685-0.809-0.999-1.236c-0.045-0.068-0.084-0.16-0.152-0.225   c-0.383-0.541-0.737-1.082-1.054-1.645c-0.359-0.563-0.672-1.168-0.941-1.777c-0.293-0.605-0.563-1.236-0.787-1.867   c-0.203-0.518-0.359-1.057-0.518-1.598c-0.158-0.539-0.291-1.102-0.404-1.664c-0.045-0.27-0.113-0.539-0.135-0.811   c-0.092-0.518-0.158-1.035-0.203-1.553c-0.066-0.652-0.09-1.305-0.09-1.98c0-0.809,0.045-1.619,0.135-2.43   c0.045-0.404,0.09-0.787,0.158-1.17c0.066-0.428,0.156-0.854,0.248-1.281c0.111-0.518,0.246-1.014,0.404-1.508   c0.045-0.135,0.09-0.293,0.158-0.451c0.111-0.451,0.268-0.877,0.449-1.305c0.203-0.494,0.404-0.967,0.652-1.461   c0.113-0.248,0.246-0.52,0.383-0.766c0.203-0.381,0.404-0.742,0.629-1.104c0.182-0.316,0.359-0.607,0.586-0.9   c0.898-1.35,1.957-2.586,3.127-3.689c0.361-0.359,0.742-0.697,1.146-1.035c0.045-0.045,0.092-0.09,0.158-0.111   c0.404-0.338,0.811-0.652,1.238-0.922c0.967-0.699,2.002-1.307,3.082-1.824c0.27-0.135,0.563-0.271,0.855-0.383   c0.404-0.201,0.809-0.359,1.215-0.494c0.586-0.225,1.193-0.404,1.799-0.563c0.586-0.158,1.193-0.293,1.801-0.404   c0.045-0.023,0.068-0.023,0.113-0.023c0.607-0.113,1.236-0.203,1.867-0.246c0.652-0.068,1.305-0.092,1.957-0.092   c12.219,0,22.276,9.945,22.276,22.162C486.815,200.051,482.36,207.564,475.003,211.416z"/><circle cx="464.309" cy="193.209" r="10.205"/><circle cx="47.443" cy="193.209" r="10.205"/><path d="M60.42,246.664H34.209c-3.418,0-6.188,3.584-6.188,7s2.77,7,6.188,7H60.42c3.418,0,6.188-3.584,6.188-7   S63.838,246.664,60.42,246.664z"/><path d="M477.416,246.664h-26.213c-3.416,0-6.188,3.584-6.188,7s2.771,7,6.188,7h26.213c3.416,0,6.188-3.584,6.188-7   S480.832,246.664,477.416,246.664z"/><path d="M269.283,219.664h-15.908l9.658-25.214c0.205-0.543,0.133-1.849-0.195-2.328c-0.33-0.475-0.871-1.458-1.451-1.458h-15.59   c-0.764,0-1.436,1.198-1.674,1.923l-13.145,40.35c-0.176,0.531-0.084,1.334,0.248,1.79c0.33,0.457,0.863,0.938,1.426,0.938h15.516   l-7.934,22.413c-0.348,0.979,0.053,1.98,0.973,2.465c0.313,0.162,0.643,0.235,0.967,0.235c0.627,0,1.23-0.306,1.633-0.864   l26.906-37.403c0.387-0.541,0.439-1.269,0.137-1.86S269.947,219.664,269.283,219.664z"/></g></svg>